PathFileType	4	(X/Y/Z)	s11c0403.trc
DataRate	CameraRate	NumFrames	NumMarkers	Units	OrigDataRate	OrigDataStartFrame	OrigNumFrames
200	200	4	48	mm	200	750	2000
Frame#	Time	racr			lacr			c7			jug			rlel			rdr			llel			ldr			s2			lic			ric			lasi			rasi			rpsi			lpsi			rgt			lgt			rth1			rth2			rth3			rth4			rlfc			rmfc			rsh1			rsh2			rsh3			rsh4			rlmal			rcal			rtoe			rmt5			lth1			lth2			lth4			lth3			llfc			lmfc			llmal			lcal			lmt5			lsh1			lsh2			lsh3			lsh4			ltoe			SBIKE			LBIKE			RBIKE			
		X1	Y1	Z1	X2	Y2	Z2	X3	Y3	Z3	X4	Y4	Z4	X5	Y5	Z5	X6	Y6	Z6	X7	Y7	Z7	X8	Y8	Z8	X9	Y9	Z9	X10	Y10	Z10	X11	Y11	Z11	X12	Y12	Z12	X13	Y13	Z13	X14	Y14	Z14	X15	Y15	Z15	X16	Y16	Z16	X17	Y17	Z17	X18	Y18	Z18	X19	Y19	Z19	X20	Y20	Z20	X21	Y21	Z21	X22	Y22	Z22	X23	Y23	Z23	X24	Y24	Z24	X25	Y25	Z25	X26	Y26	Z26	X27	Y27	Z27	X28	Y28	Z28	X29	Y29	Z29	X30	Y30	Z30	X31	Y31	Z31	X32	Y32	Z32	X33	Y33	Z33	X34	Y34	Z34	X35	Y35	Z35	X36	Y36	Z36	X37	Y37	Z37	X38	Y38	Z38	X39	Y39	Z39	X40	Y40	Z40	X41	Y41	Z41	X42	Y42	Z42	X43	Y43	Z43	X44	Y44	Z44	X45	Y45	Z45	X46	Y46	Z46	X47	Y47	Z47	X48	Y48	Z48	
750	3.7500	819.832753	1356.792739	-100.279303	771.780978	1345.615401	-456.651750	782.106768	1479.751310	-274.148050	761.432635	1295.545192	-279.152549	632.282094	1165.945826	26.985643	774.458176	969.724102	-73.644437	539.551627	1150.865271	-581.572831	757.522917	957.532556	-484.171466	195.457661	1303.945529	-197.595158	375.867545	1289.710053	-432.069898	433.188256	1262.765958	-34.686550	396.819832	1204.089034	-402.828016	449.287513	1195.328459	-73.213047	252.846223	1368.552902	-147.132252	240.830333	1369.086711	-239.416826	341.750919	1121.929510	-11.931450	274.764869	1176.902161	-429.300138	403.038531	991.092331	-24.104190	457.573060	923.512654	-46.571520	469.738180	838.479136	-64.297737	487.080990	940.257697	-61.737962	504.144357	737.543455	-89.823612	479.486921	728.965268	-217.353724	371.444638	641.487080	-72.110815	311.357076	580.070030	-89.800193	228.324047	552.587039	-87.579738	326.156705	562.783180	-122.799963	109.201238	491.107449	-94.635761	57.775159	532.719556	-140.346275	188.319557	277.075399	-151.214368	129.577901	316.869704	-79.292382	366.697456	1052.826638	-450.477565	430.350645	996.233318	-448.953765	461.983989	1015.128861	-443.052959	458.179437	910.712519	-447.761624	526.053472	782.470364	-427.133829	539.946245	767.123208	-301.240927	309.027485	405.411423	-419.128861	242.093766	373.461052	-385.319624	429.928405	286.775673	-458.293703	464.931275	669.179528	-450.280851	447.295609	586.540562	-436.537393	390.326004	518.922311	-434.318810	475.389273	575.180676	-412.326390	529.459816	290.479619	-392.412438	-176.976503	971.747463	-171.471735	-17.953193	80.844991	-460.978263	-17.981166	81.151851	-62.017172	
751	3.7550	818.892408	1357.094882	-99.136112	772.310260	1345.077873	-456.732906	781.229557	1479.589087	-274.112060	762.140888	1295.499774	-278.485400	631.952460	1165.710582	27.952342	774.292670	969.593034	-73.818865	538.878271	1150.821128	-580.689917	755.738909	957.530642	-485.851327	195.023801	1301.018156	-198.600629	375.717828	1285.811941	-432.984769	433.498292	1261.958704	-35.356750	397.581151	1200.712156	-403.543900	449.163263	1194.369653	-74.067721	252.157367	1366.345521	-149.035620	240.255412	1365.822966	-241.378115	342.286460	1120.906790	-11.734599	274.317573	1171.349852	-429.618768	404.501294	990.450845	-23.821476	460.460076	923.951482	-46.106769	475.094734	839.430992	-63.390570	489.631542	941.422888	-61.495558	510.537712	739.363123	-89.113373	485.360713	729.811824	-217.370893	376.567348	645.016042	-70.428862	314.901400	584.553977	-89.248196	231.753646	558.113880	-87.048113	330.001703	566.615428	-121.435020	111.921516	499.347937	-94.290125	60.333967	541.185699	-140.307919	190.185381	285.645407	-151.732875	131.663040	325.221503	-79.311091	364.377640	1046.280486	-450.681115	427.192297	988.740006	-449.195153	459.181257	1007.108251	-443.616536	453.520584	902.812107	-447.298875	518.907502	774.431706	-427.039748	533.384180	759.068883	-300.907160	305.766196	395.549207	-418.644294	239.280858	363.312412	-385.199468	427.435792	277.661898	-458.303440	458.184772	661.203077	-449.932320	441.542886	578.348631	-436.396845	385.343578	510.075907	-434.159474	469.918163	567.191153	-412.416006	527.066339	281.696812	-392.437532	-176.927597	971.673603	-171.574300	-17.942870	80.808585	-460.975842	-17.999099	81.096354	-62.013137	
752	3.7600	818.004288	1357.540240	-97.885110	772.851277	1344.827612	-456.570176	780.189112	1479.452182	-273.995748	762.906098	1295.631228	-277.686401	631.683072	1165.462351	28.872517	774.173954	969.410086	-74.227698	538.354801	1150.945312	-579.708486	754.073575	956.973480	-486.094588	194.534095	1297.893763	-199.806510	375.602626	1281.956230	-433.988498	433.030801	1260.704721	-36.549423	398.434688	1197.370582	-404.286145	449.031291	1193.272894	-74.859466	251.618194	1363.587054	-150.553974	239.586423	1362.361828	-243.408131	342.899702	1119.544907	-11.652390	273.897842	1165.793274	-429.936302	406.266362	989.964347	-23.684118	463.770773	924.622699	-45.617763	480.338547	840.317455	-62.791083	492.528521	942.833235	-61.141930	517.228170	741.285363	-88.327204	491.733287	731.200936	-216.965691	381.479370	648.701558	-69.884850	319.105222	589.234377	-88.684601	235.689303	563.857128	-86.640210	334.069084	570.789551	-120.751604	114.801486	507.711720	-94.001733	63.376143	550.066029	-140.018029	191.969806	293.272260	-152.965425	134.157946	333.879209	-79.397093	362.209124	1039.796253	-451.077273	423.906937	981.042539	-449.434626	456.282061	998.847027	-444.284197	448.725609	894.345999	-446.089128	511.826838	766.084956	-426.054700	526.608009	751.117552	-300.498870	302.307352	385.845612	-418.329565	235.971145	353.656045	-385.080928	424.585891	268.636497	-458.272859	451.124673	653.318693	-449.476429	435.710188	569.885793	-435.562257	380.162102	501.329219	-433.795196	464.230955	559.250464	-412.436897	524.175125	272.945834	-392.329229	-176.809710	971.306188	-172.038297	-17.983760	80.879484	-460.905153	-18.016547	81.042005	-62.001930	
753	3.7650	817.057046	1358.081093	-96.691371	773.367876	1344.861327	-456.195547	779.113941	1479.392310	-273.509508	763.550917	1295.866864	-276.972504	631.312329	1165.150622	29.786817	774.124475	969.279229	-74.712351	537.916159	1151.242464	-578.628593	752.354735	956.136885	-485.521694	194.012074	1294.559379	-201.188214	375.464919	1278.191968	-435.053963	433.243500	1259.306485	-37.130122	399.441820	1194.123090	-405.138161	448.789728	1191.972989	-76.024965	257.160648	1358.531390	-156.143829	238.712188	1358.779910	-245.285076	343.336828	1118.047358	-11.683258	273.495149	1160.040287	-430.554476	408.350268	989.344062	-23.378697	467.273339	925.478747	-45.208038	486.181360	841.534562	-62.136991	495.707423	944.107170	-60.938725	524.096844	743.430314	-87.425494	499.621883	732.327396	-216.096879	387.126963	652.743212	-69.207686	324.031257	593.888652	-88.104704	240.301256	569.747036	-86.167409	338.983120	575.448371	-119.929764	118.035513	516.295614	-93.733900	66.964821	558.668382	-139.818093	194.894680	301.806831	-153.100763	137.210785	342.331779	-79.566207	359.969563	1033.056989	-451.480535	420.476597	973.197256	-449.654201	453.019516	990.377739	-445.302151	443.630791	886.063686	-445.242699	504.422808	758.118236	-425.581823	519.637274	743.633964	-299.914900	298.606816	376.453368	-418.120745	232.532699	344.263509	-384.943722	421.305723	259.737908	-458.197197	443.999706	645.360003	-448.910170	429.482562	561.869599	-435.182853	374.711103	492.670741	-433.326511	458.430708	551.751895	-412.730504	520.993339	264.217567	-392.252699	-176.962906	971.542345	-171.700254	-18.020284	80.780035	-460.869455	-18.025797	81.037270	-62.001233	
